<?xml version="1.0" encoding="UTF-8" standalone="no"?>
<svg width="82px" height="19px" viewBox="0 0 82 19" version="1.1" xmlns="http://www.w3.org/2000/svg" xmlns:xlink="http://www.w3.org/1999/xlink">
    <!-- Generator: Sketch 3.6.1 (26313) - http://www.bohemiancoding.com/sketch -->
    <title>SURF</title>
    <desc>Created with Sketch.</desc>
    <defs></defs>
    <g id="Page-1" stroke="none" stroke-width="1" fill="none" fill-rule="evenodd">
        <path d="M5.55457317,4.15928899 C5.1795713,4.46762387 4.99207317,4.87595312 4.99207317,5.38428899 C4.99207317,5.89262487 5.22123755,6.29678749 5.67957317,6.59678899 C6.1379088,6.89679049 7.19623155,7.25095362 8.85457317,7.65928899 C10.5129148,8.06762437 11.8004019,8.68011824 12.7170732,9.49678899 C13.6337444,10.3134597 14.0920732,11.5051145 14.0920732,13.071789 C14.0920732,14.6384635 13.504579,15.9092841 12.3295732,16.884289 C11.1545673,17.8592939 9.60874942,18.346789 7.69207317,18.346789 C4.92539267,18.346789 2.43375092,17.3217992 0.217073171,15.271789 L2.54207317,12.421789 C4.42541592,14.0717972 6.16706517,14.896789 7.76707317,14.896789 C8.48374342,14.896789 9.0462378,14.7426239 9.45457317,14.434289 C9.86290855,14.1259541 10.0670732,13.7092916 10.0670732,13.184289 C10.0670732,12.6592864 9.85040867,12.2426239 9.41707317,11.934289 C8.98373767,11.6259541 8.12541292,11.3134572 6.84207317,10.996789 C4.80872967,10.5134532 3.32124455,9.88429287 2.37957317,9.10928899 C1.4379018,8.33428512 0.967073171,7.11763062 0.967073171,5.45928899 C0.967073171,3.80094737 1.56290055,2.52179349 2.75457317,1.62178899 C3.9462458,0.721784491 5.43373092,0.271788991 7.21707317,0.271788991 C8.38374567,0.271788991 9.55040067,0.471786991 10.7170732,0.871788991 C11.8837457,1.27179099 12.9004022,1.83845199 13.7670732,2.57178899 L11.7920732,5.42178899 C10.2753989,4.27178324 8.70874792,3.69678899 7.09207317,3.69678899 C6.44206992,3.69678899 5.92957505,3.85095412 5.55457317,4.15928899 L5.55457317,4.15928899 Z M29.6670732,14.846789 C30.7670787,14.846789 31.6379033,14.4426264 32.2795732,13.634289 C32.921243,12.8259516 33.2420732,11.721796 33.2420732,10.321789 L33.2420732,0.671788991 L37.1420732,0.671788991 L37.1420732,10.446789 C37.1420732,12.980135 36.4420802,14.9259489 35.0420732,16.284289 C33.6420662,17.6426291 31.8504174,18.321789 29.6670732,18.321789 C27.4837289,18.321789 25.6879135,17.6384625 24.2795732,16.271789 C22.8712328,14.9051155 22.1670732,12.9634682 22.1670732,10.446789 L22.1670732,0.671788991 L26.0670732,0.671788991 L26.0670732,10.321789 C26.0670732,11.721796 26.3920699,12.8259516 27.0420732,13.634289 C27.6920764,14.4426264 28.5670677,14.846789 29.6670732,14.846789 L29.6670732,14.846789 Z M60.3670732,6.47178899 C60.3670732,9.27180299 59.2587509,11.0801182 57.0420732,11.896789 L61.4670732,18.146789 L56.6670732,18.146789 L52.7920732,12.571789 L50.0920732,12.571789 L50.0920732,18.146789 L46.1920732,18.146789 L46.1920732,0.671788991 L52.8170732,0.671788991 C55.5337534,0.671788991 57.471234,1.13011774 58.6295732,2.04678899 C59.7879123,2.96346024 60.3670732,4.43844549 60.3670732,6.47178899 L60.3670732,6.47178899 Z M55.6670732,8.54678899 C56.1504089,8.11345349 56.3920732,7.42596037 56.3920732,6.48428899 C56.3920732,5.54261762 56.1420757,4.89679074 55.6420732,4.54678899 C55.1420707,4.19678724 54.2670794,4.02178899 53.0170732,4.02178899 L50.0920732,4.02178899 L50.0920732,9.19678899 L52.9420732,9.19678899 C54.2754132,9.19678899 55.1837374,8.98012449 55.6670732,8.54678899 L55.6670732,8.54678899 Z M81.3670732,0.671788991 L81.3670732,4.09678899 L73.2670732,4.09678899 L73.2670732,7.87178899 L80.9670732,7.87178899 L80.9670732,11.296789 L73.2670732,11.296789 L73.2670732,18.146789 L69.3670732,18.146789 L69.3670732,0.671788991 L81.3670732,0.671788991 Z" id="SURF" fill="#444444"></path>
    </g>
</svg>