<?xml version="1.0" encoding="UTF-8" standalone="no"?>
<svg width="119px" height="40px" viewBox="0 0 119 40" version="1.1" xmlns="http://www.w3.org/2000/svg" xmlns:xlink="http://www.w3.org/1999/xlink">
    <!-- Generator: Sketch 3.6.1 (26313) - http://www.bohemiancoding.com/sketch -->
    <title>Group</title>
    <desc>Created with Sketch.</desc>
    <defs></defs>
    <g id="Page-1" stroke="none" stroke-width="1" fill="none" fill-rule="evenodd">
        <g id="Group">
            <path d="M119,2.00547173 L119,-1.02140518e-14 L2.00547173,-3.1705598e-14 L0,0 L0,37 L1.42108547e-14,39.0109435 L119,39.0109435 L119,37 L119,2.00547173 Z M114.989057,4.01094346 L4.01094346,4.01094346 L4.01094346,35 L114.989057,35 L114.989057,4.01094346 Z" id="Combined-Shape" fill="#454545"></path>
            <path d="M23.5545732,15.159289 C23.1795713,15.4676239 22.9920732,15.8759531 22.9920732,16.384289 C22.9920732,16.8926249 23.2212375,17.2967875 23.6795732,17.596789 C24.1379088,17.8967905 25.1962315,18.2509536 26.8545732,18.659289 C28.5129148,19.0676244 29.8004019,19.6801182 30.7170732,20.496789 C31.6337444,21.3134597 32.0920732,22.5051145 32.0920732,24.071789 C32.0920732,25.6384635 31.504579,26.9092841 30.3295732,27.884289 C29.1545673,28.8592939 27.6087494,29.346789 25.6920732,29.346789 C22.9253927,29.346789 20.4337509,28.3217992 18.2170732,26.271789 L20.5420732,23.421789 C22.4254159,25.0717972 24.1670652,25.896789 25.7670732,25.896789 C26.4837434,25.896789 27.0462378,25.7426239 27.4545732,25.434289 C27.8629085,25.1259541 28.0670732,24.7092916 28.0670732,24.184289 C28.0670732,23.6592864 27.8504087,23.2426239 27.4170732,22.934289 C26.9837377,22.6259541 26.1254129,22.3134572 24.8420732,21.996789 C22.8087297,21.5134532 21.3212445,20.8842929 20.3795732,20.109289 C19.4379018,19.3342851 18.9670732,18.1176306 18.9670732,16.459289 C18.9670732,14.8009474 19.5629005,13.5217935 20.7545732,12.621789 C21.9462458,11.7217845 23.4337309,11.271789 25.2170732,11.271789 C26.3837457,11.271789 27.5504007,11.471787 28.7170732,11.871789 C29.8837457,12.271791 30.9004022,12.838452 31.7670732,13.571789 L29.7920732,16.421789 C28.2753989,15.2717832 26.7087479,14.696789 25.0920732,14.696789 C24.4420699,14.696789 23.929575,14.8509541 23.5545732,15.159289 L23.5545732,15.159289 Z M47.6670732,25.846789 C48.7670787,25.846789 49.6379033,25.4426264 50.2795732,24.634289 C50.921243,23.8259516 51.2420732,22.721796 51.2420732,21.321789 L51.2420732,11.671789 L55.1420732,11.671789 L55.1420732,21.446789 C55.1420732,23.980135 54.4420802,25.9259489 53.0420732,27.284289 C51.6420662,28.6426291 49.8504174,29.321789 47.6670732,29.321789 C45.4837289,29.321789 43.6879135,28.6384625 42.2795732,27.271789 C40.8712328,25.9051155 40.1670732,23.9634682 40.1670732,21.446789 L40.1670732,11.671789 L44.0670732,11.671789 L44.0670732,21.321789 C44.0670732,22.721796 44.3920699,23.8259516 45.0420732,24.634289 C45.6920764,25.4426264 46.5670677,25.846789 47.6670732,25.846789 L47.6670732,25.846789 Z M78.3670732,17.471789 C78.3670732,20.271803 77.2587509,22.0801182 75.0420732,22.896789 L79.4670732,29.146789 L74.6670732,29.146789 L70.7920732,23.571789 L68.0920732,23.571789 L68.0920732,29.146789 L64.1920732,29.146789 L64.1920732,11.671789 L70.8170732,11.671789 C73.5337534,11.671789 75.471234,12.1301177 76.6295732,13.046789 C77.7879123,13.9634602 78.3670732,15.4384455 78.3670732,17.471789 L78.3670732,17.471789 Z M73.6670732,19.546789 C74.1504089,19.1134535 74.3920732,18.4259604 74.3920732,17.484289 C74.3920732,16.5426176 74.1420757,15.8967907 73.6420732,15.546789 C73.1420707,15.1967872 72.2670794,15.021789 71.0170732,15.021789 L68.0920732,15.021789 L68.0920732,20.196789 L70.9420732,20.196789 C72.2754132,20.196789 73.1837374,19.9801245 73.6670732,19.546789 L73.6670732,19.546789 Z M99.3670732,11.671789 L99.3670732,15.096789 L91.2670732,15.096789 L91.2670732,18.871789 L98.9670732,18.871789 L98.9670732,22.296789 L91.2670732,22.296789 L91.2670732,29.146789 L87.3670732,29.146789 L87.3670732,11.671789 L99.3670732,11.671789 Z" id="SURF" fill="#444444"></path>
        </g>
    </g>
</svg>